<?xml version="1.0" encoding="utf-8"?>
<!-- Generator: Adobe Illustrator 27.0.0, SVG Export Plug-In . SVG Version: 6.00 Build 0)  -->
<svg version="1.1" id="Layer_1" xmlns="http://www.w3.org/2000/svg" xmlns:xlink="http://www.w3.org/1999/xlink" x="0px" y="0px"
	 viewBox="0 0 722.3 200" style="enable-background:new 0 0 722.3 200;" xml:space="preserve">
<style type="text/css">
	.st0{fill:#3E3A39;}
	.st1{fill:#6E62A3;}
	.st2{fill:#62B853;}
	.st3{fill:#EDB850;}
	.st4{fill:#DF675C;}
</style>
<g>
	<path class="st0" d="M274.8,150.8v-97h59.9v15.7h-40.4v24.9h31v15.4h-31v41H274.8z M418.1,126.7c-2.1,7.3-6.6,13.7-12.7,18.3
		c-6.3,4.8-14.1,7.1-23.2,7.1c-11.3,0-20.6-3.6-27.8-10.9c-7.2-7.3-10.8-16.9-10.8-28.8c0-12,3.6-21.7,10.7-28.9
		c7.1-7.2,16.4-10.9,27.9-10.9c11.2,0,20.3,3.5,27.4,10.5c7,7,10.6,16.2,10.6,27.6c0,2.5-0.2,5-0.5,7.5h-56.3
		c0.4,5.6,2.4,9.9,5.8,13.1c3.5,3.2,8,4.8,12.7,4.7c7.2,0,12.4-3.1,15.4-9.3H418.1z M381.6,88.5c-4.4-0.1-8.8,1.5-12.1,4.4
		c-3.3,2.9-5.4,7-6.1,12.2h36.6c-0.1-5-1.9-9-5.4-12C390.9,90,386.3,88.4,381.6,88.5L381.6,88.5z M432,128.4
		c-1.9-5.2-2.8-10.8-2.7-16.4c-0.1-5.6,0.9-11.1,2.7-16.3c1.6-4.6,4.2-8.9,7.5-12.5c3.2-3.4,7-6,11.2-7.9c4.4-1.9,9.1-2.9,13.8-2.8
		c5,0,9.8,1.1,14.3,3.2c4.2,2,7.9,4.9,10.8,8.7V47.9h19.8v102.9h-19.8v-11.4c-2.6,3.8-6.1,7-10.2,9.1c-4.6,2.4-9.8,3.6-15.1,3.5
		c-9.5,0-18.5-3.9-24.9-10.9C436.1,137.4,433.6,133.1,432,128.4L432,128.4z M483.8,128.9c4-4.1,6-9.6,6-16.6s-2-12.5-6-16.6
		c-7.8-8-20.6-8.2-28.6-0.4c-0.1,0.1-0.2,0.1-0.2,0.2c-4,4-6,9.5-6,16.4c0,7,2,12.5,6,16.7c3.7,4,8.9,6.3,14.3,6.2
		C474.8,135.1,480,132.9,483.8,128.9L483.8,128.9z M528.4,150.8v-97h22.1l30.9,72.1l30.8-72.1h22v97h-19.5V87.7l-26,63.1H574
		l-26.1-63.1v63.1L528.4,150.8z M653.3,53.8h19.5v81.6h32v15.4h-51.4L653.3,53.8z"/>
	<path class="st1" d="M135,59l-22.4,22.4L90.2,59c-12.4-12.4-12.4-32.4,0-44.8c12.4-12.4,32.5-12.4,44.8,0c0,0,0,0,0,0
		C147.4,26.6,147.4,46.6,135,59L135,59z"/>
	<path class="st2" d="M198.5,122.4c-12.4,12.4-32.5,12.4-44.9,0L131.2,100l22.4-22.4c12.4-12.4,32.5-12.4,44.9,0
		C210.8,90,210.8,110,198.5,122.4z"/>
	<path class="st3" d="M135,185.9c-12.4,12.4-32.4,12.4-44.8,0c-12.4-12.4-12.4-32.5,0-44.9l22.4-22.4L135,141
		C147.4,153.4,147.4,173.5,135,185.9L135,185.9z"/>
	<path class="st4" d="M94,100l-22.4,22.4c-12.4,12.4-32.4,12.4-44.8,0C14.4,110,14.4,90,26.8,77.6c12.4-12.4,32.5-12.4,44.9,0
		L94,100z"/>
</g>
</svg>
